<svg width="209" height="55" viewBox="0 0 209 55" fill="none" xmlns="http://www.w3.org/2000/svg">
<circle cx="27.5" cy="27.5" r="27.5" fill="url(#paint0_angular_157:4229)"/>
<path d="M32.1 18.625V20.95H24.725V26.075H30.475V28.4H24.725V36H21.875V18.625H32.1ZM33.9412 29.05C33.9412 27.6667 34.2245 26.4417 34.7912 25.375C35.3745 24.3083 36.1579 23.4833 37.1412 22.9C38.1412 22.3 39.2412 22 40.4412 22C41.5245 22 42.4662 22.2167 43.2662 22.65C44.0829 23.0667 44.7329 23.5917 45.2162 24.225V22.225H48.0912V36H45.2162V33.95C44.7329 34.6 44.0745 35.1417 43.2412 35.575C42.4079 36.0083 41.4579 36.225 40.3912 36.225C39.2079 36.225 38.1245 35.925 37.1412 35.325C36.1579 34.7083 35.3745 33.8583 34.7912 32.775C34.2245 31.675 33.9412 30.4333 33.9412 29.05ZM45.2162 29.1C45.2162 28.15 45.0162 27.325 44.6162 26.625C44.2329 25.925 43.7245 25.3917 43.0912 25.025C42.4579 24.6583 41.7745 24.475 41.0412 24.475C40.3079 24.475 39.6245 24.6583 38.9912 25.025C38.3579 25.375 37.8412 25.9 37.4412 26.6C37.0579 27.2833 36.8662 28.1 36.8662 29.05C36.8662 30 37.0579 30.8333 37.4412 31.55C37.8412 32.2667 38.3579 32.8167 38.9912 33.2C39.6412 33.5667 40.3245 33.75 41.0412 33.75C41.7745 33.75 42.4579 33.5667 43.0912 33.2C43.7245 32.8333 44.2329 32.3 44.6162 31.6C45.0162 30.8833 45.2162 30.05 45.2162 29.1ZM56.9846 36.225C55.9012 36.225 54.9262 36.0333 54.0596 35.65C53.2096 35.25 52.5346 34.7167 52.0346 34.05C51.5346 33.3667 51.2679 32.6083 51.2346 31.775H54.1846C54.2346 32.3583 54.5096 32.85 55.0096 33.25C55.5262 33.6333 56.1679 33.825 56.9346 33.825C57.7346 33.825 58.3512 33.675 58.7846 33.375C59.2346 33.0583 59.4596 32.6583 59.4596 32.175C59.4596 31.6583 59.2096 31.275 58.7096 31.025C58.2262 30.775 57.4512 30.5 56.3846 30.2C55.3512 29.9167 54.5096 29.6417 53.8596 29.375C53.2096 29.1083 52.6429 28.7 52.1596 28.15C51.6929 27.6 51.4596 26.875 51.4596 25.975C51.4596 25.2417 51.6762 24.575 52.1096 23.975C52.5429 23.3583 53.1596 22.875 53.9596 22.525C54.7762 22.175 55.7096 22 56.7596 22C58.3262 22 59.5846 22.4 60.5346 23.2C61.5012 23.9833 62.0179 25.0583 62.0846 26.425H59.2346C59.1846 25.8083 58.9346 25.3167 58.4846 24.95C58.0346 24.5833 57.4262 24.4 56.6596 24.4C55.9096 24.4 55.3346 24.5417 54.9346 24.825C54.5346 25.1083 54.3346 25.4833 54.3346 25.95C54.3346 26.3167 54.4679 26.625 54.7346 26.875C55.0012 27.125 55.3262 27.325 55.7096 27.475C56.0929 27.6083 56.6596 27.7833 57.4096 28C58.4096 28.2667 59.2262 28.5417 59.8596 28.825C60.5096 29.0917 61.0679 29.4917 61.5346 30.025C62.0012 30.5583 62.2429 31.2667 62.2596 32.15C62.2596 32.9333 62.0429 33.6333 61.6096 34.25C61.1762 34.8667 60.5596 35.35 59.7596 35.7C58.9762 36.05 58.0512 36.225 56.9846 36.225ZM68.8141 24.55V32.175C68.8141 32.6917 68.9307 33.0667 69.1641 33.3C69.4141 33.5167 69.8307 33.625 70.4141 33.625H72.1641V36H69.9141C68.6307 36 67.6474 35.7 66.9641 35.1C66.2807 34.5 65.9391 33.525 65.9391 32.175V24.55H64.3141V22.225H65.9391V18.8H68.8141V22.225H72.1641V24.55H68.8141ZM77.7908 33.7H83.6658V36H74.9408V18.625H77.7908V33.7ZM98.8242 28.775C98.8242 29.2917 98.7909 29.7583 98.7242 30.175H88.1992C88.2826 31.275 88.6909 32.1583 89.4242 32.825C90.1576 33.4917 91.0576 33.825 92.1242 33.825C93.6576 33.825 94.7409 33.1833 95.3742 31.9H98.4492C98.0326 33.1667 97.2742 34.2083 96.1742 35.025C95.0909 35.825 93.7409 36.225 92.1242 36.225C90.8076 36.225 89.6242 35.9333 88.5742 35.35C87.5409 34.75 86.7242 33.9167 86.1242 32.85C85.5409 31.7667 85.2492 30.5167 85.2492 29.1C85.2492 27.6833 85.5326 26.4417 86.0992 25.375C86.6826 24.2917 87.4909 23.4583 88.5242 22.875C89.5742 22.2917 90.7742 22 92.1242 22C93.4242 22 94.5826 22.2833 95.5992 22.85C96.6159 23.4167 97.4076 24.2167 97.9742 25.25C98.5409 26.2667 98.8242 27.4417 98.8242 28.775ZM95.8492 27.875C95.8326 26.825 95.4576 25.9833 94.7242 25.35C93.9909 24.7167 93.0826 24.4 91.9992 24.4C91.0159 24.4 90.1742 24.7167 89.4742 25.35C88.7742 25.9667 88.3576 26.8083 88.2242 27.875H95.8492ZM100.829 29.05C100.829 27.6667 101.112 26.4417 101.679 25.375C102.262 24.3083 103.046 23.4833 104.029 22.9C105.029 22.3 106.129 22 107.329 22C108.412 22 109.354 22.2167 110.154 22.65C110.971 23.0667 111.621 23.5917 112.104 24.225V22.225H114.979V36H112.104V33.95C111.621 34.6 110.962 35.1417 110.129 35.575C109.296 36.0083 108.346 36.225 107.279 36.225C106.096 36.225 105.012 35.925 104.029 35.325C103.046 34.7083 102.262 33.8583 101.679 32.775C101.112 31.675 100.829 30.4333 100.829 29.05ZM112.104 29.1C112.104 28.15 111.904 27.325 111.504 26.625C111.121 25.925 110.612 25.3917 109.979 25.025C109.346 24.6583 108.662 24.475 107.929 24.475C107.196 24.475 106.512 24.6583 105.879 25.025C105.246 25.375 104.729 25.9 104.329 26.6C103.946 27.2833 103.754 28.1 103.754 29.05C103.754 30 103.946 30.8333 104.329 31.55C104.729 32.2667 105.246 32.8167 105.879 33.2C106.529 33.5667 107.212 33.75 107.929 33.75C108.662 33.75 109.346 33.5667 109.979 33.2C110.612 32.8333 111.121 32.3 111.504 31.6C111.904 30.8833 112.104 30.05 112.104 29.1ZM121.722 24.225C122.139 23.525 122.689 22.9833 123.372 22.6C124.072 22.2 124.897 22 125.847 22V24.95H125.122C124.006 24.95 123.156 25.2333 122.572 25.8C122.006 26.3667 121.722 27.35 121.722 28.75V36H118.872V22.225H121.722V24.225ZM135.567 22C136.65 22 137.617 22.225 138.467 22.675C139.334 23.125 140.009 23.7917 140.492 24.675C140.975 25.5583 141.217 26.625 141.217 27.875V36H138.392V28.3C138.392 27.0667 138.084 26.125 137.467 25.475C136.85 24.8083 136.009 24.475 134.942 24.475C133.875 24.475 133.025 24.8083 132.392 25.475C131.775 26.125 131.467 27.0667 131.467 28.3V36H128.617V22.225H131.467V23.8C131.934 23.2333 132.525 22.7917 133.242 22.475C133.975 22.1583 134.75 22 135.567 22Z" fill="#0F75BC"/>
<defs>
<radialGradient id="paint0_angular_157:4229" cx="0" cy="0" r="1" gradientUnits="userSpaceOnUse" gradientTransform="translate(27.5 27.5) rotate(49.8208) scale(29.4491)">
<stop offset="0.485504" stop-color="#7DBEFF"/>
<stop offset="1" stop-color="#DDEEFF" stop-opacity="0"/>
</radialGradient>
</defs>
</svg>
